<?xml version="1.0" encoding="UTF-8" standalone="no"?>
<!-- Created with Inkscape (http://www.inkscape.org/) -->

<svg
   width="1920"
   height="1080"
   viewBox="0 0 1920 1080"
   version="1.1"
   id="svg5"
   xml:space="preserve"
   inkscape:version="1.2.2 (732a01da63, 2022-12-09)"
   sodipodi:docname="bg.svg"
   xmlns:inkscape="http://www.inkscape.org/namespaces/inkscape"
   xmlns:sodipodi="http://sodipodi.sourceforge.net/DTD/sodipodi-0.dtd"
   xmlns="http://www.w3.org/2000/svg"
   xmlns:svg="http://www.w3.org/2000/svg"><sodipodi:namedview
     id="namedview7"
     pagecolor="#ffffff"
     bordercolor="#000000"
     borderopacity="0.25"
     inkscape:showpageshadow="2"
     inkscape:pageopacity="0.0"
     inkscape:pagecheckerboard="0"
     inkscape:deskcolor="#d1d1d1"
     inkscape:document-units="px"
     showgrid="false"
     inkscape:zoom="0.44562459"
     inkscape:cx="1026.6489"
     inkscape:cy="592.42692"
     inkscape:window-width="1920"
     inkscape:window-height="1009"
     inkscape:window-x="-8"
     inkscape:window-y="-8"
     inkscape:window-maximized="1"
     inkscape:current-layer="layer2" /><defs
     id="defs2" /><g
     inkscape:label="Capa 1"
     inkscape:groupmode="layer"
     id="layer1" /><g
     inkscape:groupmode="layer"
     id="layer2"
     inkscape:label="SVG"><path
       style="fill:#9bbaff;stroke-width:25;fill-opacity:1"
       d="m 1.5867769,815.60331 19.8347111,-29.35538 34.115702,7.1405 72.99174,-75.3719 71.40495,-37.28926 178.5124,82.5124 50.77686,-14.28099 69.02479,84.09917 49.19009,-26.9752 26.9752,-31.73554 60.29752,21.42149 92.35866,-87.77355 123.42227,-79.66347 86.50007,70.64363 60.29752,-13.48761 211.04134,89.6529 100.7603,-6.34711 74.5785,30.14876 88.0661,19.04132 66.6447,-46.80992 39.6694,2.38017 71.4049,-81.71901 37.2893,-21.42149 61.0909,52.36364 96,65.85124 25.3884,26.97521 49.9835,-9.52066 1.6928,276.66735 -1919.7773793,-3.3661 z"
       id="path523" /><path
       style="fill:#587190;fill-opacity:1;stroke-width:25"
       d="m 21.879403,785.97549 24.40395,46.28335 74.053367,53.29598 -23.001426,-60.86962 -41.79527,-30.85557 z"
       id="path2870" /><path
       style="fill:#587190;fill-opacity:1;stroke-width:25"
       d="m 200.13223,680.52893 -1.98347,126.54545 63.86777,6.54546 27.17355,72.79338 -18.04958,55.93389 -28.36364,-10.90909 -6.34711,-14.67769 -66.04958,-41.45454 18.84297,60.29752 -6.7438,20.82644 44.2314,45.02475 37.09091,1.7852 9.32232,33.9173 71.6033,43.8347 19.43802,9.3224 -32.72727,-75.1736 1.78512,-61.09091 64.46281,-22.80992 -25.98347,-34.71074 13.68595,-25.38843 -6.34711,-54.14876 18.24794,-30.7438 -19.23967,-23.40496 z"
       id="path3628" /><path
       style="fill:#587190;fill-opacity:1;stroke-width:25"
       d="m 454.83913,966.48056 c 0,0 13.324,-37.72794 13.324,-38.28895 0,-0.56101 51.19219,-66.47973 51.19219,-66.47973 l -21.03789,-28.61153 -69.14452,-84.15155 13.46425,72.7911 11.50071,16.97056 -10.79945,7.9944 16.83031,17.39132 -7.29313,13.46424 -11.50072,42.35628 z"
       id="path3630" /><path
       style="fill:#587190;fill-opacity:1;stroke-width:25"
       d="m 598.17727,923.14251 -11.2202,46.84437 51.33244,-53.43624 34.08138,-88.49938 -37.58769,-32.11784 -60.16836,-21.5989 29.8738,53.43624 19.91587,14.44601 -12.62273,30.01406 -6.73213,26.78824 -37.8682,-21.17814 12.62274,32.95936 z"
       id="path3632" /><path
       style="fill:#587190;fill-opacity:1;stroke-width:25"
       d="m 850.5124,628.36364 86.67768,70.80991 35.70248,36.29753 14.87604,50.18181 -74.38017,-54.7438 -52.16529,-2.9752 17.05785,-46.41323 z"
       id="path3634" /><path
       style="fill:#587190;fill-opacity:1;stroke-width:25"
       d="m 997.47638,684.99362 93.68872,129.03238 60.5891,-5.3296 29.7336,9.53718 -22.1599,32.25809 8.9761,43.1978 -18.5133,82.18802 -23.8429,-46.00285 -114.4462,-41.51477 55.8206,61.71114 -4.4881,38.99022 22.1599,58.06457 41.2343,3.6466 86.3955,55.2595 -12.0617,-37.5877 -22.1599,-19.3549 2.5246,-35.6241 44.6003,-5.0491 -11.5007,-40.11225 13.4642,-26.9285 58.6256,2.24404 96.2133,36.46567 31.4166,42.91734 80.5049,33.6606 -37.0266,-72.08985 18.2328,-44.03932 -10.9397,-12.90323 1.683,-37.8682 -19.6353,-24.40395 44.3198,-20.47688 -19.0744,-27.209 -86.9566,-17.95233 -74.6144,-30.57506 13.1838,15.70829 -10.3787,14.86677 34.2216,27.209 32.5386,73.77286 3.3661,-32.5386 18.5133,-12.06172 10.3787,20.47688 -0.2805,50.77143 -17.9523,25.80648 -46.2834,-30.57507 -35.3436,5.3296 -25.526,-53.85699 -58.0646,-39.27072 -19.6353,-59.4671 z"
       id="path3636" /><path
       style="fill:#587190;fill-opacity:1;stroke-width:25"
       d="m 1686.3471,670.21488 41.6529,72.39669 -13.8843,63.47108 20.2314,5.55371 -1.9835,70.61157 38.4794,19.43802 51.9669,55.1405 -11.9008,-65.85124 25.3884,-32.92562 61.4876,-1.19008 -28.9587,-41.6529 -24.595,-26.9752 -95.9999,-65.2562 z"
       id="path3638"
       sodipodi:nodetypes="cccccccccccccc" /><path
       style="fill:#587190;fill-opacity:1;stroke-width:25"
       d="m 1538.3802,771.17355 39.471,2.38017 20.2314,20.6281 -35.5041,7.53719 34.5124,70.21488 -56.9256,-22.61157 6.5454,-15.07438 -8.7272,-20.6281 12.0991,-26.18182 z"
       id="path3640" /></g></svg>
