<svg class="thumb" width="1000" height="1000" viewBox="0,0,600,600" xmlns="http://www.w3.org/2000/svg" xmlns:inkscape="http://www.inkscape.org/namespaces/inkscape" xmlns:sodipodi="http://sodipodi.sourceforge.net/DTD/sodipodi-0.dtd" xmlns:xlink="http://www.w3.org/1999/xlink" xmlns:ns1="http://www.inkscape.org/namespaces/inkscape" xmlns:sketch="http://www.bohemiancoding.com/sketch/ns">
  <defs></defs>
  <g transform="matrix(1.0833,0,0,1.0833,-92.3297,105.8739)">
    <g transform="matrix(1.2617,1.2617,-0.7315,0.7315,230.6145,0.0388)">
      <svg width="185.988" height="162.359" viewBox="-4.609,3,185.988,162.359" class="thumb">
        <defs>
          <linearGradient x1="0" y1="0.5" x2="1" y2="0.5" id="linearGradientSjz2vdcio4">
            <stop offset="0%" stop-color="#b1b1b1"></stop>
            <stop offset="100%" stop-color="#b1b1b1"></stop>
          </linearGradient>
        </defs>
        <g></g>
        <g></g>
        <g>
          <polygon points="88.385,8 0.391,160.359 176.379,160.359 " fill="url('#linearGradientSjz2vdcio4')" stroke="none" style=""></polygon>
        </g>
      </svg>
    </g>
    <g transform="matrix(4.3018,0,0,4.3018,91.4137,94.3437)">
      <svg width="64" height="64" viewBox="8,8,64,64" class="thumb">
        <defs>
          <linearGradient x1="0" y1="0.5" x2="1" y2="0.5" id="linearGradientSjz2vdcioa">
            <stop offset="0%" stop-color="#000000"></stop>
            <stop offset="100%" stop-color="#000000"></stop>
          </linearGradient>
        </defs>
        <g></g>
        <g></g>
        <g>
          <path d="M67,67H13V13h54V67z M15,65h50V15H15V65z" fill="url('#linearGradientSjz2vdcioa')" stroke="none" style=""></path>
        </g>
      </svg>
    </g>
    <g transform="matrix(1.2559,1.2559,-1.0466,1.0466,121.1632,106.3003)">
      <svg width="186.742" height="17.218999999999994" viewBox="-5,79.525,186.742,17.218999999999994" class="thumb">
        <defs>
          <linearGradient x1="0" y1="0.5" x2="1" y2="0.5" id="linearGradientSjz2vdciog">
            <stop offset="0%" stop-color="#000000"></stop>
            <stop offset="100%" stop-color="#000000"></stop>
          </linearGradient>
        </defs>
        <g></g>
        <g></g>
        <g>
          <rect y="84.525" width="176.742" height="7.219" fill="url('#linearGradientSjz2vdciog')" stroke="none" style=""></rect>
        </g>
      </svg>
    </g>
    <g transform="matrix(0.6252,-0.6252,1.0466,1.0466,218.0307,228.2463)">
      <svg width="186.742" height="17.218999999999994" viewBox="-5,79.525,186.742,17.218999999999994" class="thumb">
        <defs>
          <linearGradient x1="0" y1="0.5" x2="1" y2="0.5" id="linearGradientSjz2vdciom">
            <stop offset="0%" stop-color="#000000"></stop>
            <stop offset="100%" stop-color="#000000"></stop>
          </linearGradient>
        </defs>
        <g></g>
        <g></g>
        <g>
          <rect y="84.525" width="176.742" height="7.219" fill="url('#linearGradientSjz2vdciom')" stroke="none" style=""></rect>
        </g>
      </svg>
    </g>
    <g transform="matrix(0.619,-0.619,1.0466,1.0466,220.6043,335.6727)">
      <svg width="186.742" height="17.218999999999994" viewBox="-5,79.525,186.742,17.218999999999994" class="thumb">
        <defs>
          <linearGradient x1="0" y1="0.5" x2="1" y2="0.5" id="linearGradientSjz2vdcios">
            <stop offset="0%" stop-color="#000000"></stop>
            <stop offset="100%" stop-color="#000000"></stop>
          </linearGradient>
        </defs>
        <g></g>
        <g></g>
        <g>
          <rect y="84.525" width="176.742" height="7.219" fill="url('#linearGradientSjz2vdcios')" stroke="none" style=""></rect>
        </g>
      </svg>
    </g>
    <g transform="matrix(0.6817,0.6817,-1.0466,1.0466,123.5725,211.7095)">
      <svg width="186.742" height="17.218999999999994" viewBox="-5,79.525,186.742,17.218999999999994" class="thumb">
        <defs>
          <linearGradient x1="0" y1="0.5" x2="1" y2="0.5" id="linearGradientSjz2vdcioy">
            <stop offset="0%" stop-color="#000000"></stop>
            <stop offset="100%" stop-color="#000000"></stop>
          </linearGradient>
        </defs>
        <g></g>
        <g></g>
        <g>
          <rect y="84.525" width="176.742" height="7.219" fill="url('#linearGradientSjz2vdcioy')" stroke="none" style=""></rect>
        </g>
      </svg>
    </g>
    <g transform="matrix(1.0473,0,0,1.4802,133.6748,126.4185)">
      <svg width="186.742" height="17.218999999999994" viewBox="-5,79.525,186.742,17.218999999999994" class="thumb">
        <defs>
          <linearGradient x1="0" y1="0.5" x2="1" y2="0.5" id="linearGradientSjz2vdcio14">
            <stop offset="0%" stop-color="#000000"></stop>
            <stop offset="100%" stop-color="#000000"></stop>
          </linearGradient>
        </defs>
        <g></g>
        <g></g>
        <g>
          <rect y="84.525" width="176.742" height="7.219" fill="url('#linearGradientSjz2vdcio14')" stroke="none" style=""></rect>
        </g>
      </svg>
    </g>
    <g transform="matrix(0.8661,0,0,1.4802,147.5195,146.4185)">
      <svg width="186.742" height="17.218999999999994" viewBox="-5,79.525,186.742,17.218999999999994" class="thumb">
        <defs>
          <linearGradient x1="0" y1="0.5" x2="1" y2="0.5" id="linearGradientSjz2vdcio1a">
            <stop offset="0%" stop-color="#000000"></stop>
            <stop offset="100%" stop-color="#000000"></stop>
          </linearGradient>
        </defs>
        <g></g>
        <g></g>
        <g>
          <rect y="84.525" width="176.742" height="7.219" fill="url('#linearGradientSjz2vdcio1a')" stroke="none" style=""></rect>
        </g>
      </svg>
    </g>
    <g transform="matrix(0.5845,0,0,1.4802,176.7161,167.4185)">
      <svg width="186.742" height="17.218999999999994" viewBox="-5,79.525,186.742,17.218999999999994" class="thumb">
        <defs>
          <linearGradient x1="0" y1="0.5" x2="1" y2="0.5" id="linearGradientSjz2vdcio1g">
            <stop offset="0%" stop-color="#000000"></stop>
            <stop offset="100%" stop-color="#000000"></stop>
          </linearGradient>
        </defs>
        <g></g>
        <g></g>
        <g>
          <rect y="84.525" width="176.742" height="7.219" fill="url('#linearGradientSjz2vdcio1g')" stroke="none" style=""></rect>
        </g>
      </svg>
    </g>
    <g transform="matrix(0.3499,0,0,1.4802,198.5328,188.4185)">
      <svg width="186.742" height="17.218999999999994" viewBox="-5,79.525,186.742,17.218999999999994" class="thumb">
        <defs>
          <linearGradient x1="0" y1="0.5" x2="1" y2="0.5" id="linearGradientSjz2vdcio1m">
            <stop offset="0%" stop-color="#000000"></stop>
            <stop offset="100%" stop-color="#000000"></stop>
          </linearGradient>
        </defs>
        <g></g>
        <g></g>
        <g>
          <rect y="84.525" width="176.742" height="7.219" fill="url('#linearGradientSjz2vdcio1m')" stroke="none" style=""></rect>
        </g>
      </svg>
    </g>
    <g transform="matrix(1.0119,0,0,1.0119,362.9672,121.9019)">
      <svg width="246.435546875" height="185" style="overflow: visible;">
        <defs>
          <linearGradient x1="0" y1="0.5" x2="1" y2="0.5" id="linearGradientSjz2vdcio1y">
            <stop offset="0%" stop-color="#000000"></stop>
            <stop offset="100%" stop-color="#000000"></stop>
          </linearGradient>
        </defs>
        <g transform="matrix(1,0,0,1,0,93.75)">
          <path d="M 3.91-16.89L 3.91-16.89Q 3.91-19.58  4.22-21.85Q 4.54-24.12  5.18-26.76L 5.18-26.76L 14.99-26.76L 14.99-22.71Q 14.99-19.34  15.41-16.75Q 15.82-14.16  16.77-12.38Q 17.72-10.6  19.31-9.69Q 20.9-8.79  23.19-8.79L 23.19-8.79Q 26.81-8.79  28.71-10.77Q 30.62-12.74  30.62-16.55L 30.62-16.55Q 30.62-18.51  30.35-20.14Q 30.08-21.78  29.42-23.39Q 28.76-25  27.64-26.78Q 26.51-28.56  24.76-30.76L 24.76-30.76L 11.57-46.44Q 8.06-50.93  6.15-55.49Q 4.25-60.06  4.25-65.23L 4.25-65.23Q 4.25-69.38  5.54-72.85Q 6.84-76.32  9.28-78.83Q 11.72-81.35  15.31-82.74Q 18.9-84.13  23.44-84.13L 23.44-84.13Q 28.96-84.13  32.64-82.57Q 36.33-81.01  38.53-78.47Q 40.72-75.93  41.63-72.78Q 42.53-69.63  42.53-66.46L 42.53-66.46Q 42.53-63.77  42.11-61.5Q 41.7-59.23  41.16-56.49L 41.16-56.49L 31.4-56.49L 31.4-60.45Q 31.4-67.09  29.49-70.63Q 27.59-74.17  23.29-74.17L 23.29-74.17Q 19.73-74.17  17.97-72.19Q 16.21-70.21  16.21-66.89L 16.21-66.89Q 16.21-65.14  16.48-63.72Q 16.75-62.3  17.26-61.11Q 17.77-59.91  18.51-58.79Q 19.24-57.67  20.17-56.45L 20.17-56.45L 34.86-38.67Q 38.87-33.45  41.02-28.64Q 43.16-23.83  43.16-18.46L 43.16-18.46Q 43.16-14.01  41.77-10.45Q 40.38-6.88  37.79-4.39Q 35.21-1.9  31.54-0.56Q 27.88 0.78  23.29 0.78L 23.29 0.78Q 17.63 0.78  13.89-0.73Q 10.16-2.25  7.93-4.74Q 5.71-7.23  4.81-10.4Q 3.91-13.57  3.91-16.89ZM 53.51968749999999-25.63L 53.51968749999999-83.4L 66.25968749999998-83.4L 66.25968749999998-22.27Q 66.25968749999998-18.36  66.64968749999998-15.77Q 67.03968749999999-13.18  67.89968749999998-11.65Q 68.7496875-10.11  70.08968749999998-9.45Q 71.43968749999999-8.79  73.28968749999999-8.79L 73.28968749999999-8.79Q 75.14968749999998-8.79  76.53968749999999-9.45Q 77.92968749999999-10.11  78.82968749999998-11.65Q 79.73968749999999-13.18  80.19968749999998-15.77Q 80.65968749999999-18.36  80.65968749999999-22.27L 80.65968749999999-22.27L 80.65968749999999-83.4L 93.25968749999998-83.4L 93.25968749999998-25.63Q 93.25968749999998-19.53  92.28968749999999-15.19Q 91.3096875-10.84  89.69968749999998-7.91Q 88.08968749999998-4.98  86.00968749999998-3.27Q 83.93968749999999-1.56  81.70968749999999-0.66Q 79.48968749999999 0.24  77.29968749999999 0.49Q 75.09968749999999 0.73  73.28968749999999 0.73L 73.28968749999999 0.73Q 71.47968749999998 0.73  69.30968749999998 0.49Q 67.13968749999998 0.24  64.93968749999999-0.66Q 62.73968749999999-1.56  60.689687499999984-3.27Q 58.63968749999999-4.98  57.02968749999999-7.91Q 55.41968749999999-10.84  54.469687499999985-15.16Q 53.51968749999999-19.48  53.51968749999999-25.63L 53.51968749999999-25.63ZM 107.22765625 0L 107.22765625-83.4L 119.87765625-83.4Q 122.26765625-83.4  125.11765625-83.18Q 127.97765625-82.96  130.83765625-82.15Q 133.68765625-81.35  136.34765625-79.69Q 139.01765625000002-78.03  141.06765625-75.17Q 143.11765625-72.31  144.35765625-68.02Q 145.60765625-63.72  145.60765625-57.57L 145.60765625-57.57L 145.60765625-54.64Q 145.60765625-47.95  144.45765625-43.19Q 143.30765625-38.43  141.40765625-35.18Q 139.49765625-31.93  136.98765625-29.98Q 134.47765625-28.03  131.76765625000002-27.03Q 129.05765625-26.03  126.29765625-25.71Q 123.53765625-25.39  121.09765625-25.39L 121.09765625-25.39L 119.87765625-25.39L 119.87765625 0L 107.22765625 0ZM 119.87765625-34.67L 120.50765625-34.67Q 123.92765625-34.67  126.26765625-35.67Q 128.61765625-36.67  130.00765625-38.79Q 131.39765625-40.92  132.00765625-44.26Q 132.61765625-47.61  132.61765625-52.29L 132.61765625-52.29L 132.61765625-59.81Q 132.61765625-63.53  132.07765625-66.24Q 131.54765625-68.95  130.14765625-70.7Q 128.75765625-72.46  126.41765625-73.32Q 124.06765625-74.17  120.50765625-74.17L 120.50765625-74.17L 119.87765625-74.17L 119.87765625-34.67ZM 155.176875 0L 155.176875-83.4L 168.896875-83.4Q 171.236875-83.4  174.046875-83.2Q 176.856875-83.01  179.666875-82.25Q 182.46687500000002-81.49  185.086875-79.98Q 187.696875-78.47  189.71687500000002-75.83Q 191.746875-73.19  192.96687500000002-69.21Q 194.186875-65.23  194.186875-59.57L 194.186875-59.57L 194.186875-57.47Q 194.186875-47.95  191.456875-41.97Q 188.71687500000002-35.99  183.396875-33.35L 183.396875-33.35L 196.776875 0L 183.396875 0L 172.316875-31.2L 167.576875-31.2L 167.576875 0L 155.176875 0ZM 167.576875-40.33L 169.486875-40.33Q 172.806875-40.33  175.096875-41.06Q 177.396875-41.8  178.806875-43.53Q 180.226875-45.26  180.856875-48.12Q 181.496875-50.98  181.496875-55.18L 181.496875-55.18L 181.496875-61.77Q 181.496875-64.99  180.906875-67.33Q 180.326875-69.68  178.926875-71.19Q 177.536875-72.71  175.246875-73.44Q 172.946875-74.17  169.486875-74.17L 169.486875-74.17L 167.576875-74.17L 167.576875-40.33ZM 200.14875 0L 215.52875-83.4L 230.07875-83.4L 245.50875 0L 232.71875 0L 230.41875-14.94L 215.18875-14.94L 212.98875 0L 200.14875 0ZM 216.64875-24.46L 228.95875-24.46L 223.09875-66.02L 222.55875-66.02L 216.64875-24.46Z" data-textpath="SUPRA" data-text-anchor="middle" data-font-size="100" data-letterspacing="0" data-side="left" data-offset="0.5" data-dx="0" data-dy="0" data-xmlspace="preserve" data-href="" data-font="Fjalla One" data-font-src="/Content/clientfonts/fjallaone.woff" data-font-scale="contain" transform="translate(0,0)" data-x="0" data-y="0" fill="url('#linearGradientSjz2vdcio1y')"></path>
        </g>
      </svg>
    </g>
    <g transform="matrix(0.9993,0,0,0.9993,365.1839,233.6637)">
      <svg width="152.099609375" height="185" style="overflow: visible;">
        <defs>
          <linearGradient x1="0" y1="0.5" x2="1" y2="0.5" id="linearGradientSjz2vdcio21">
            <stop offset="0%" stop-color="#000000"></stop>
            <stop offset="100%" stop-color="#000000"></stop>
          </linearGradient>
        </defs>
        <g transform="matrix(1,0,0,1,0,93.75)">
          <path d="M 7.13 0L 7.13-83.4L 19.78-83.4L 19.78 0L 7.13 0ZM 34.034296875 0L 34.034296875-83.4L 44.284296874999995-83.4L 64.504296875-27.59L 64.794296875-27.59Q 64.64429687500001-29.54  64.404296875-31.93Q 64.16429687499999-34.33  63.964296875-37.38Q 63.774296875-40.43  63.624296875-44.29Q 63.474296875-48.14  63.474296875-52.98L 63.474296875-52.98L 63.474296875-83.4L 74.804296875-83.4L 74.804296875 0L 64.454296875 0L 44.334296875-54.35L 43.944296875-54.35Q 44.094296875-52.15  44.334296875-49.58Q 44.584296875-47.02  44.774296875000005-43.55Q 44.974296875-40.09  45.114296875-35.47Q 45.264296875-30.86  45.264296875-24.51L 45.264296875-24.51L 45.264296875 0L 34.034296875 0ZM 107.03359375 0.73L 107.03359375 0.73Q 105.07359375 0.73  102.80359375 0.42Q 100.53359375 0.1  98.26359375-0.93Q 95.99359375-1.95  93.92359375-3.83Q 91.84359375-5.71  90.26359375-8.79Q 88.67359375-11.87  87.72359375-16.38Q 86.76359375-20.9  86.76359375-27.15L 86.76359375-27.15L 86.76359375-56.69Q 86.76359375-62.99  87.74359375-67.46Q 88.72359375-71.92  90.33359375-74.98Q 91.94359375-78.03  94.04359375-79.83Q 96.14359375000001-81.64  98.39359375000001-82.59Q 100.63359375-83.54  102.85359375-83.84Q 105.07359375-84.13  106.98359375-84.13L 106.98359375-84.13Q 111.96359375-84.13  115.30359375-82.74Q 118.65359375-81.35  120.68359375-78.93Q 122.70359375000001-76.51  123.56359375-73.29Q 124.41359374999999-70.07  124.41359374999999-66.46L 124.41359374999999-66.46Q 124.41359374999999-63.77  124.14359375000001-61.5Q 123.87359375-59.23  123.34359375-56.49L 123.34359375-56.49L 113.08359375-56.49L 113.08359375-60.74Q 113.08359375-67.63  111.57359375-71.04Q 110.06359375-74.46  107.13359375-74.46L 107.13359375-74.46Q 105.37359375-74.46  104.05359375-73.78Q 102.73359375-73.1  101.85359375-71.46Q 100.97359374999999-69.82  100.51359375-67.14Q 100.05359375-64.45  100.05359375-60.45L 100.05359375-60.45L 100.05359375-22.36Q 100.05359375-18.46  100.41359375-15.87Q 100.78359375-13.28  101.61359375-11.72Q 102.44359375-10.16  103.78359375-9.5Q 105.12359375-8.84  107.03359375-8.84L 107.03359375-8.84Q 108.25359375-8.84  109.37359375-9.4Q 110.49359375-9.96  111.35359375-11.16Q 112.20359375-12.35  112.72359374999999-14.18Q 113.23359375-16.02  113.23359375-18.51L 113.23359375-18.51L 113.23359375-26.66L 124.80359375-26.66L 124.80359375-18.95Q 124.80359375-8.89  120.21359375-4.1Q 115.62359375 0.68  107.03359375 0.73ZM 132.07671875-8.74L 132.07671875-8.74Q 132.07671875-13.92  134.12671875-16.16Q 136.17671875-18.41  139.69671875-18.41L 139.69671875-18.41Q 143.35671875-18.41  145.35671875-16.02Q 147.36671875-13.62  147.36671875-8.74L 147.36671875-8.74Q 147.36671875-4.25  145.33671875-1.78Q 143.30671875 0.68  139.64671875 0.68L 139.64671875 0.68Q 136.17671875 0.68  134.12671875-1.71Q 132.07671875-4.1  132.07671875-8.74Z" data-textpath="INC." data-text-anchor="middle" data-font-size="100" data-letterspacing="0" data-side="left" data-offset="0.5" data-dx="0" data-dy="0" data-xmlspace="preserve" data-href="" data-font="Fjalla One" data-font-src="/Content/clientfonts/fjallaone.woff" data-font-scale="contain" transform="translate(0,0)" data-x="0" data-y="0" fill="url('#linearGradientSjz2vdcio21')"></path>
        </g>
      </svg>
    </g>
  </g>
</svg>